<?xml version="1.0" encoding="UTF-8"?>
<svg version="1.1" xmlns="http://www.w3.org/2000/svg" width="2691" height="869">
<path d="M0 0 C1.17870771 2.35741542 1.12327537 3.75042398 1.12025452 6.37857056 C1.12231651 7.75840874 1.12231651 7.75840874 1.12442017 9.16612244 C1.12082489 10.17816238 1.11722961 11.19020233 1.11352539 12.23291016 C1.11367142 13.2963414 1.11381744 14.35977264 1.1139679 15.45542908 C1.11326919 18.98332737 1.10547871 22.51117339 1.09765625 26.0390625 C1.09579192 28.48001069 1.09436809 30.92095926 1.09336853 33.36190796 C1.08954451 39.79647855 1.0797152 46.23102668 1.06866455 52.66558838 C1.05844795 59.22757666 1.05387038 65.78956856 1.04882812 72.3515625 C1.03809284 85.2343846 1.02120915 98.11719111 1 111 C-0.09354546 111.15917404 -0.09354546 111.15917404 -1.20918274 111.32156372 C-4.57398985 111.8149536 -7.93735762 112.31758141 -11.30078125 112.8203125 C-12.44712036 112.98700439 -13.59345947 113.15369629 -14.77453613 113.32543945 C-47.16944319 118.20332625 -79.32869232 132.28311019 -104 154 C-105.25876953 155.09441406 -105.25876953 155.09441406 -106.54296875 156.2109375 C-109.06375103 158.43860556 -111.53852077 160.70706155 -114 163 C-114.78890625 163.72316406 -115.5778125 164.44632813 -116.390625 165.19140625 C-127.85346909 176.11808505 -137.1978919 189.2669532 -145 203 C-145.65355469 204.12148438 -146.30710938 205.24296875 -146.98046875 206.3984375 C-170.17019958 247.19643273 -174.49232379 296.28179006 -162.75488281 341.27001953 C-158.98774538 354.89360646 -153.74971969 367.60162492 -147 380 C-146.67386719 380.61069336 -146.34773437 381.22138672 -146.01171875 381.85058594 C-124.64452946 421.71188628 -86.16374104 453.36015809 -43 467 C-30.54753893 470.62646205 -17.9280049 473.73992864 -5 475 C-3.91976563 475.10957031 -2.83953125 475.21914063 -1.7265625 475.33203125 C46.90207803 479.66356099 95.55946691 464.26394191 133 433 C137.11054426 429.44913082 141.06717074 425.74555168 145 422 C145.71800781 421.33484375 146.43601562 420.6696875 147.17578125 419.984375 C175.94686246 392.53941577 191.71329357 350.81082594 196 312 C196.66 312 197.32 312 198 312 C198.33 306.06 198.66 300.12 199 294 C234.31 294 269.62 294 306 294 C303.2982197 358.84272718 285.13516591 411.03622827 250 465 C249.32839844 466.03640625 248.65679688 467.0728125 247.96484375 468.140625 C246.00751021 471.11610443 244.01294055 474.06181309 242 477 C241.52401367 477.69609375 241.04802734 478.3921875 240.55761719 479.109375 C231.99142468 491.59977434 223.01773907 503.7296174 213.76123047 515.71582031 C212.24076623 517.68774482 210.72868779 519.66548661 209.22265625 521.6484375 C203.14346118 529.62922844 196.84322006 537.41769411 190.48828125 545.1796875 C189.18590621 546.77261865 187.88933968 548.3702952 186.59375 549.96875 C181.03629797 556.81488655 175.31311003 563.5095879 169.55712891 570.18847656 C168.00548064 571.99362396 166.46066415 573.80438559 164.91796875 575.6171875 C159.45564703 582.03035135 153.9206709 588.34930412 148.2265625 594.55859375 C146.30866793 596.66154833 144.42623955 598.78669156 142.5625 600.9375 C138.27989077 605.86199914 133.84645175 610.64818971 129.42626953 615.44873047 C127.17428659 617.89807994 124.93207349 620.35636141 122.6875 622.8125 C118.39505039 627.49779935 114.07901957 632.16097797 109.75 636.8125 C109.18369873 637.42262939 108.61739746 638.03275879 108.03393555 638.66137695 C105.24761013 641.64919201 102.42680451 644.58266435 99.515625 647.44921875 C97.27377486 649.67119472 95.17128423 651.94040165 93.1394043 654.35449219 C87.49863318 660.83322511 81.3302697 666.81337581 75.25390625 672.87890625 C73.91529513 674.21819236 72.57683237 675.55762676 71.23851013 676.89720154 C68.4437495 679.69342996 65.64720514 682.48785859 62.84936523 685.28100586 C59.28099423 688.84368017 55.71713236 692.41082597 52.154603 695.97934055 C49.39475402 698.74282 46.63250678 701.50389242 43.8695507 704.26426506 C42.55523429 705.57791907 41.24164731 706.89230333 39.92883492 708.2074604 C27.54728219 720.60627553 27.54728219 720.60627553 21.50621033 725.713974 C19.56338156 727.37279167 17.76844705 729.15786766 16 731 C12.97883015 729.63739753 10.79224738 728.080215 8.390625 725.8046875 C7.72224609 725.17498047 7.05386719 724.54527344 6.36523438 723.89648438 C5.66720703 723.22939453 4.96917969 722.56230469 4.25 721.875 C3.53134766 721.19501953 2.81269531 720.51503906 2.07226562 719.81445312 C-2.07467027 715.87844221 -6.15689386 711.88852644 -10.16090393 707.80690002 C-11.84469697 706.15258422 -13.57409126 704.63286435 -15.37866211 703.11303711 C-21.69514235 697.61603415 -27.52911926 691.61462889 -33.44140625 685.69140625 C-34.7358519 684.39763566 -36.03044584 683.10401343 -37.32518005 681.81053162 C-40.02725151 679.10992761 -42.72752381 676.40754107 -45.42651367 673.70385742 C-48.8681199 670.25655451 -52.31419705 666.8137615 -55.76164341 663.37230015 C-58.43247711 660.70509788 -61.10090244 658.03549632 -63.76862907 655.36518669 C-65.03762583 654.0955278 -66.3073521 652.82659757 -67.57785225 651.55844307 C-79.55901432 639.59455575 -79.55901432 639.59455575 -84.65892029 633.56126404 C-86.80474829 631.06312462 -89.14390254 628.80065987 -91.5 626.5 C-95.24083233 622.84718725 -98.71255292 619.07129248 -102.13476562 615.11914062 C-105.3284533 611.49071013 -108.66965283 608.00260651 -112 604.5 C-116.58585226 599.67694848 -121.08990459 594.81027752 -125.45019531 589.78173828 C-127.39024841 587.55134958 -129.38050303 585.36921987 -131.375 583.1875 C-134.50422827 579.72469918 -137.50500349 576.19320997 -140.4375 572.5625 C-143.51336588 568.75912497 -146.68753166 565.09917348 -150 561.5 C-154.41377112 556.6935928 -158.5636031 551.72889917 -162.65869141 546.65039062 C-164.20187037 544.751612 -165.76190797 542.86744261 -167.32421875 540.984375 C-173.88851585 533.07024159 -180.34216331 525.10856185 -186.54785156 516.90869141 C-188.24779633 514.67429864 -189.96360302 512.45248875 -191.6796875 510.23046875 C-237.48254377 450.77768077 -278.8622705 383.46924042 -279.203125 305.9296875 C-279.20882507 304.8909549 -279.21452515 303.85222229 -279.22039795 302.78201294 C-279.22979504 300.58857217 -279.23636072 298.39511763 -279.24023438 296.20166016 C-279.24983165 292.93234737 -279.28086135 289.66369414 -279.3125 286.39453125 C-279.70716725 208.02108795 -244.86309337 136.26797678 -190.5 81.3125 C-184.63071885 75.45566618 -178.57609993 70.06118685 -172 65 C-170.71312437 63.9849038 -169.42669933 62.96923621 -168.140625 61.953125 C-121.14771544 25.10398704 -60.36087934 0 0 0 Z " fill="#CE413A" transform="translate(379,78)"/>
<path d="M0 0 C1.04620616 -0.00679667 1.04620616 -0.00679667 2.1135478 -0.01373065 C4.44470356 -0.02636459 6.77562537 -0.02475491 9.10681152 -0.02310181 C10.78101908 -0.02908799 12.45522388 -0.03589375 14.12942505 -0.04345703 C18.67532617 -0.06112254 23.22115199 -0.06581286 27.76708412 -0.0670886 C30.61136785 -0.06851131 33.45563251 -0.07278335 36.2999115 -0.07808304 C46.23523165 -0.09659045 56.17049815 -0.10475342 66.10583496 -0.10317993 C75.34490411 -0.10198077 84.58373879 -0.12303689 93.82274866 -0.15466726 C101.76949482 -0.18089689 109.71616478 -0.19154432 117.66295385 -0.19026911 C122.40240562 -0.18976112 127.14164935 -0.19535303 131.88105774 -0.21662521 C136.3463147 -0.23611861 140.81116771 -0.23605691 145.27643967 -0.22159195 C146.90612255 -0.21951591 148.53583144 -0.22413203 150.16547012 -0.23631287 C165.77191195 -0.34531009 179.918365 2.57872738 191.7064209 13.51742554 C202.11036504 24.68024561 206.08385401 38.56150045 206.1595459 53.47836304 C206.16524597 54.36416046 206.17094604 55.24995789 206.17681885 56.16259766 C206.18624016 58.03688374 206.19279139 59.91118617 206.19665527 61.78549194 C206.20627175 64.59879142 206.23728498 67.41133121 206.2689209 70.22445679 C206.41274166 94.44828851 201.69542692 114.93064951 184.6439209 133.01742554 C170.18793764 146.88034281 151.35639767 152.70946515 131.9564209 155.26742554 C133.37820877 156.48610086 134.79999943 157.70477294 136.22180176 158.9234314 C137.48047384 160.00231679 138.73909879 161.08125718 139.99768066 162.1602478 C143.15603445 164.86779951 146.31494172 167.57469441 149.47595215 170.27914429 C158.6353776 178.1179388 167.74803983 186.00976346 176.85192871 193.91293335 C183.60427253 199.7737867 190.36060042 205.62992389 197.1439209 211.45492554 C197.71263916 211.94331909 198.28135742 212.43171265 198.86730957 212.93490601 C201.72551532 215.38198593 204.5987965 217.80819129 207.49938965 220.20492554 C208.06053467 220.66874634 208.62167969 221.13256714 209.1998291 221.61044312 C210.73840337 222.8782762 212.28088326 224.14136535 213.8236084 225.40414429 C214.52743652 226.0190271 215.23126465 226.63390991 215.9564209 227.26742554 C215.9564209 227.59742554 215.9564209 227.92742554 215.9564209 228.26742554 C207.59339461 228.54747372 199.23237643 228.75966061 190.86579704 228.8891716 C186.97910006 228.95138604 183.09564574 229.03550007 179.21081543 229.17269897 C150.63142552 230.15558235 150.63142552 230.15558235 143.01396179 224.24662781 C140.39023162 221.75509211 138.19157727 219.11661077 135.9564209 216.26742554 C134.61587907 215.04388189 133.24717221 213.84936016 131.83532715 212.70883179 C130.72950909 211.74959891 129.62403125 210.78997367 128.5189209 209.82992554 C127.25981579 208.7374667 126.00070092 207.64501911 124.74157715 206.55258179 C124.11654297 206.01004761 123.49150879 205.46751343 122.84753418 204.90853882 C119.71856796 202.19321337 116.58738934 199.48044173 113.4564209 196.76742554 C112.20641016 195.6841046 110.95641016 194.60077126 109.7064209 193.51742554 C109.0876709 192.98117554 108.4689209 192.44492554 107.8314209 191.89242554 C102.2064209 187.01742554 102.2064209 187.01742554 100.33044434 185.39144897 C99.08387146 184.31117243 97.83712741 183.23109339 96.59020996 182.1512146 C93.41132236 179.39772963 90.23573685 176.64058289 87.0657959 173.87680054 C86.09609863 173.03278687 86.09609863 173.03278687 85.10681152 172.17172241 C83.90123323 171.12226217 82.69668101 170.0716211 81.49353027 169.01937866 C80.32842283 168.00606807 79.15248868 167.00510485 77.96740723 166.01522827 C76.46115892 164.70610704 75.01676967 163.32523497 73.60754395 161.91220093 C65.89115978 154.65103101 59.61074487 153.99521333 49.2689209 154.20492554 C44.5457959 154.22555054 39.8226709 154.24617554 34.9564209 154.26742554 C34.9564209 140.40742554 34.9564209 126.54742554 34.9564209 112.26742554 C41.74720215 112.23004272 48.5379834 112.19265991 55.5345459 112.15414429 C59.85488304 112.123843 64.17518005 112.09268095 68.4954834 112.05844116 C75.34214171 112.00426047 82.18872066 111.95314497 89.03552246 111.92098999 C94.55996748 111.89484494 100.08414369 111.85436406 105.60842133 111.80423927 C107.70853056 111.78764603 109.80868621 111.77608506 111.90885162 111.76981163 C133.72876933 111.78182447 133.72876933 111.78182447 152.9564209 102.26742554 C162.74160403 92.2753675 163.14325316 80.12572123 163.14172363 66.84481812 C163.14391826 64.70749224 163.16213406 62.57067655 163.18103027 60.43344116 C163.18396342 59.06430229 163.18594874 57.69516098 163.18688965 56.32601929 C163.19099854 55.09166138 163.19510742 53.85730347 163.19934082 52.58554077 C162.96074642 49.32650917 162.5341402 47.12045426 160.9564209 44.26742554 C157.83304774 43.22630115 155.63441899 43.13004678 152.35664368 43.10920715 C150.6123632 43.09454611 150.6123632 43.09454611 148.83284473 43.07958889 C147.55080504 43.07381864 146.26876535 43.06804838 144.94787598 43.06210327 C143.5658091 43.05238794 142.1837452 43.04224247 140.80168438 43.03170109 C137.0973793 43.00463726 133.39306235 42.98346821 129.68871307 42.96350861 C126.21391792 42.94389608 122.73916871 42.91898286 119.2644043 42.89450073 C109.09927772 42.82597562 98.93409514 42.76597249 88.7689209 42.70492554 C66.0607959 42.56055054 43.3526709 42.41617554 19.9564209 42.26742554 C19.9564209 103.64742554 19.9564209 165.02742554 19.9564209 228.26742554 C5.7664209 228.26742554 -8.4235791 228.26742554 -23.0435791 228.26742554 C-23.08872915 201.28575817 -23.12557018 174.30412139 -23.14720345 147.32242584 C-23.1575152 134.79431302 -23.17157367 122.26622534 -23.19445801 109.73812866 C-23.2143949 98.81841499 -23.22729627 87.89871953 -23.23175609 76.97898817 C-23.23436295 71.1973085 -23.24048822 65.41568092 -23.25503922 59.63401794 C-23.26862779 54.19058833 -23.27279913 48.7472322 -23.26979446 43.30378723 C-23.27034405 41.30757243 -23.27431387 39.31135514 -23.28199005 37.31515503 C-23.2919712 34.58532898 -23.28953639 31.85577876 -23.28408813 29.12594604 C-23.28991382 28.33993153 -23.2957395 27.55391702 -23.30174172 26.74408388 C-23.26020241 19.01981107 -21.97984959 12.47302272 -17.0435791 6.26742554 C-11.67933585 1.31581638 -7.23679213 0.01945272 0 0 Z " fill="#4CA633" transform="translate(781.0435791015625,229.73257446289063)"/>
<path d="M0 0 C2.46760704 -0.00457068 4.93521281 -0.00987887 7.40281677 -0.0158844 C12.5404889 -0.02476115 17.67800507 -0.02245035 22.81567383 -0.01245117 C29.38927984 -0.00090114 35.96235346 -0.02129316 42.53588963 -0.05036831 C47.61717621 -0.06872094 52.69833451 -0.0684408 57.77964592 -0.06273079 C60.20407807 -0.06257782 62.62851905 -0.06860175 65.05291939 -0.08102226 C68.4360932 -0.09593196 71.81827293 -0.08525838 75.20141602 -0.06811523 C76.19322876 -0.0777832 77.1850415 -0.08745117 78.20690918 -0.09741211 C85.33880314 -0.0219008 90.60791793 1.52403308 96.14453125 6.109375 C96.59054687 6.64949219 97.0365625 7.18960938 97.49609375 7.74609375 C98.18832031 8.54466797 98.18832031 8.54466797 98.89453125 9.359375 C102.23337812 15.00564153 102.40820569 20.87446355 102.36160278 27.24778748 C102.36331163 28.11131445 102.36502048 28.97484141 102.36678112 29.86453587 C102.3700635 32.74498129 102.35909297 35.62519143 102.34814453 38.50561523 C102.34758015 40.5755869 102.34789751 42.64555896 102.34902954 44.7155304 C102.34960299 50.32654235 102.33784984 55.93746866 102.32388163 61.54846072 C102.31137305 67.41544583 102.31020366 73.28243294 102.30783081 79.14942932 C102.30161643 90.25566246 102.28520614 101.3618562 102.26513183 112.468072 C102.24277157 125.1136956 102.23177907 137.7593211 102.22174096 150.40495956 C102.2008399 176.41453117 102.16416414 202.42404876 102.12109375 228.43359375 C87.93109375 228.43359375 73.74109375 228.43359375 59.12109375 228.43359375 C59.12109375 210.28359375 59.12109375 192.13359375 59.12109375 173.43359375 C11.60109375 173.43359375 -35.91890625 173.43359375 -84.87890625 173.43359375 C-84.87890625 191.58359375 -84.87890625 209.73359375 -84.87890625 228.43359375 C-98.73890625 228.43359375 -112.59890625 228.43359375 -126.87890625 228.43359375 C-126.94697892 212.61141113 -127.00209304 196.78934711 -127.03434277 180.96706009 C-127.04972379 173.6182857 -127.07064252 166.26960964 -127.10522461 158.92089844 C-127.13539874 152.50574822 -127.15454466 146.09066931 -127.16117173 139.67545009 C-127.16503737 136.28766321 -127.17557844 132.90023978 -127.19609642 129.51248932 C-127.41556542 91.7356439 -120.82391561 59.38289576 -94.12890625 31.24609375 C-67.8947144 6.03348258 -35.2077125 -0.05754012 0 0 Z M-46.87890625 50.43359375 C-47.81089844 50.85253906 -48.74289062 51.27148438 -49.703125 51.703125 C-64.89080898 59.2211369 -74.58589471 71.5758428 -80.75390625 87.18359375 C-85.39915023 101.33829342 -84.87890625 115.54466664 -84.87890625 130.43359375 C-37.35890625 130.43359375 10.16109375 130.43359375 59.12109375 130.43359375 C59.12109375 101.39359375 59.12109375 72.35359375 59.12109375 42.43359375 C46.93171875 42.37171875 34.74234375 42.30984375 22.18359375 42.24609375 C18.37062744 42.21878174 14.55766113 42.19146973 10.62915039 42.16333008 C7.13537236 42.15328133 7.13537236 42.15328133 3.6415863 42.14726257 C2.1156398 42.14273145 0.58970227 42.13234319 -0.93617249 42.11686707 C-17.02364872 41.96221869 -32.0707144 43.66025305 -46.87890625 50.43359375 Z " fill="#4CA633" transform="translate(1688.87890625,229.56640625)"/>
<path d="M0 0 C2.46760704 -0.00457068 4.93521281 -0.00987887 7.40281677 -0.0158844 C12.5404889 -0.02476115 17.67800507 -0.02245035 22.81567383 -0.01245117 C29.38927984 -0.00090114 35.96235346 -0.02129316 42.53588963 -0.05036831 C47.61717621 -0.06872094 52.69833451 -0.0684408 57.77964592 -0.06273079 C60.20407807 -0.06257782 62.62851905 -0.06860175 65.05291939 -0.08102226 C68.4360932 -0.09593196 71.81827293 -0.08525838 75.20141602 -0.06811523 C76.19322876 -0.0777832 77.1850415 -0.08745117 78.20690918 -0.09741211 C85.33880314 -0.0219008 90.60791793 1.52403308 96.14453125 6.109375 C96.59054687 6.64949219 97.0365625 7.18960938 97.49609375 7.74609375 C98.18832031 8.54466797 98.18832031 8.54466797 98.89453125 9.359375 C102.23337812 15.00564153 102.40820569 20.87446355 102.36160278 27.24778748 C102.36331163 28.11131445 102.36502048 28.97484141 102.36678112 29.86453587 C102.3700635 32.74498129 102.35909297 35.62519143 102.34814453 38.50561523 C102.34758015 40.5755869 102.34789751 42.64555896 102.34902954 44.7155304 C102.34960299 50.32654235 102.33784984 55.93746866 102.32388163 61.54846072 C102.31137305 67.41544583 102.31020366 73.28243294 102.30783081 79.14942932 C102.30161643 90.25566246 102.28520614 101.3618562 102.26513183 112.468072 C102.24277157 125.1136956 102.23177907 137.7593211 102.22174096 150.40495956 C102.2008399 176.41453117 102.16416414 202.42404876 102.12109375 228.43359375 C87.93109375 228.43359375 73.74109375 228.43359375 59.12109375 228.43359375 C59.12109375 210.28359375 59.12109375 192.13359375 59.12109375 173.43359375 C11.60109375 173.43359375 -35.91890625 173.43359375 -84.87890625 173.43359375 C-84.87890625 191.58359375 -84.87890625 209.73359375 -84.87890625 228.43359375 C-98.73890625 228.43359375 -112.59890625 228.43359375 -126.87890625 228.43359375 C-126.94697892 212.61141113 -127.00209304 196.78934711 -127.03434277 180.96706009 C-127.04972379 173.6182857 -127.07064252 166.26960964 -127.10522461 158.92089844 C-127.13539874 152.50574822 -127.15454466 146.09066931 -127.16117173 139.67545009 C-127.16503737 136.28766321 -127.17557844 132.90023978 -127.19609642 129.51248932 C-127.41556542 91.7356439 -120.82391561 59.38289576 -94.12890625 31.24609375 C-67.8947144 6.03348258 -35.2077125 -0.05754012 0 0 Z M-46.87890625 50.43359375 C-47.81089844 50.85253906 -48.74289062 51.27148438 -49.703125 51.703125 C-64.89080898 59.2211369 -74.58589471 71.5758428 -80.75390625 87.18359375 C-85.39915023 101.33829342 -84.87890625 115.54466664 -84.87890625 130.43359375 C-37.35890625 130.43359375 10.16109375 130.43359375 59.12109375 130.43359375 C59.12109375 101.39359375 59.12109375 72.35359375 59.12109375 42.43359375 C46.93171875 42.37171875 34.74234375 42.30984375 22.18359375 42.24609375 C18.37062744 42.21878174 14.55766113 42.19146973 10.62915039 42.16333008 C7.13537236 42.15328133 7.13537236 42.15328133 3.6415863 42.14726257 C2.1156398 42.14273145 0.58970227 42.13234319 -0.93617249 42.11686707 C-17.02364872 41.96221869 -32.0707144 43.66025305 -46.87890625 50.43359375 Z " fill="#4CA633" transform="translate(1149.87890625,229.56640625)"/>
<path d="M0 0 C0.91805923 -0.0065712 1.83611847 -0.0131424 2.78199768 -0.01991272 C5.81202289 -0.03957312 8.84199849 -0.05129747 11.87207031 -0.0612793 C12.91425972 -0.06535482 13.95644913 -0.06943035 15.03022003 -0.07362938 C20.55578917 -0.09446781 26.08133371 -0.10877436 31.60693359 -0.11816406 C37.26847374 -0.12917225 42.92961477 -0.16351368 48.59101486 -0.20333576 C52.98214359 -0.22970228 57.37318052 -0.23787393 61.76438141 -0.24144554 C63.84842854 -0.24626667 65.93247284 -0.25774986 68.01644135 -0.27648354 C97.76611779 -0.52711102 123.0036408 7.14743013 144.70019531 28.17700195 C145.29960937 28.70293945 145.89902344 29.22887695 146.51660156 29.77075195 C155.0726001 37.5525418 161.19844492 48.16349788 165.63769531 58.73950195 C165.90775391 59.3742041 166.1778125 60.00890625 166.45605469 60.6628418 C171.01793991 72.22635466 172.16124445 84.05675156 172.13378906 96.3840332 C172.13837135 97.80303694 172.14368283 99.22203849 172.14967346 100.64103699 C172.15852564 103.59330342 172.15627412 106.54529824 172.14624023 109.49755859 C172.13705565 112.48710129 172.14396756 115.47586268 172.16674805 118.46533203 C172.40763323 150.21478218 167.70166996 177.43403742 144.70019531 201.17700195 C127.18737221 217.94510967 104.81000657 228.49211991 80.37963867 228.4675293 C79.40086761 228.47424652 78.42209656 228.48096375 77.41366577 228.48788452 C74.20573726 228.50674517 70.99801944 228.51078314 67.79003906 228.51293945 C65.53577085 228.51937728 63.28150346 228.52610635 61.02723694 228.53311157 C56.30923529 228.54505577 51.5913067 228.5487955 46.87329102 228.54760742 C40.87096581 228.54740478 34.86911695 228.57466392 28.86690426 228.60915184 C24.21073825 228.63155464 19.55468428 228.63544083 14.89846992 228.63438797 C12.68800789 228.6367255 10.47754187 228.64544281 8.26713371 228.6610527 C-21.42961261 228.85108821 -45.84369739 221.05073865 -67.51855469 200.04418945 C-82.40339063 184.6994288 -93.28442935 162.35749603 -93.47680664 140.70703125 C-93.48964188 139.44098557 -93.50247711 138.17493988 -93.51570129 136.87052917 C-93.5238771 135.49743042 -93.53131921 134.12432713 -93.53808594 132.7512207 C-93.54216146 132.04979258 -93.54623699 131.34836445 -93.55043602 130.62568092 C-93.57124683 126.90377735 -93.58556294 123.18190996 -93.5949707 119.45996094 C-93.60377934 116.4158088 -93.62453683 113.37212078 -93.65649414 110.328125 C-93.99029806 77.83830301 -93.99029806 77.83830301 -89.29980469 64.17700195 C-88.92154541 63.07493408 -88.54328613 61.97286621 -88.15356445 60.83740234 C-83.58268579 48.33580805 -75.48025607 37.64862437 -66.29980469 28.17700195 C-65.77386719 27.57758789 -65.24792969 26.97817383 -64.70605469 26.3605957 C-48.89110235 8.97221699 -22.97730422 0.07207867 0 0 Z M-37.29980469 58.17700195 C-45.37883363 68.39011401 -51.3611299 79.18007123 -51.4609375 92.51123047 C-51.47054504 93.55324112 -51.48015259 94.59525177 -51.49005127 95.6688385 C-51.49430115 96.7865715 -51.49855103 97.9043045 -51.50292969 99.0559082 C-51.50862976 100.21895981 -51.51432983 101.38201141 -51.52020264 102.58030701 C-51.52964199 105.04229832 -51.53618239 107.50430221 -51.54003906 109.96630859 C-51.54970629 113.70148305 -51.58072495 117.43609806 -51.61230469 121.17114258 C-51.61883922 123.57022787 -51.62408792 125.96931708 -51.62792969 128.3684082 C-51.64027649 129.47197159 -51.65262329 130.57553497 -51.66534424 131.71253967 C-51.62045651 147.6280248 -46.6139641 160.40275403 -35.64355469 171.95825195 C-25.25248561 181.79513068 -12.48431199 186.31920984 1.61450195 186.33813477 C2.50303864 186.34309967 3.39157532 186.34806458 4.30703735 186.35317993 C7.24148338 186.36776178 10.17587528 186.37459847 13.11035156 186.38012695 C15.15954082 186.38588357 17.20873006 186.39164123 19.25791931 186.3973999 C23.55598195 186.40789991 27.85402595 186.4137485 32.15209961 186.41723633 C37.63370815 186.42270578 43.11506639 186.44670494 48.59659672 186.47520828 C52.83221634 186.49392627 57.06777691 186.49904522 61.30343437 186.5005722 C63.32265014 186.5035808 65.34186531 186.51154799 67.36104012 186.52475739 C85.92410704 186.6374857 101.5171565 184.739433 115.63378906 171.4309082 C127.06664785 158.96066336 129.83535552 144.28844668 129.90332031 127.9777832 C129.90902039 126.90634567 129.91472046 125.83490814 129.92059326 124.73100281 C129.93001081 122.46927874 129.93656429 120.20754115 129.94042969 117.94580078 C129.95011462 114.51806177 129.98116131 111.09092814 130.01269531 107.66333008 C130.01922866 105.45565131 130.02447782 103.24796829 130.02832031 101.0402832 C130.04684052 99.52559196 130.04684052 99.52559196 130.06573486 97.9803009 C130.01786148 82.38667207 124.81296566 68.6434294 113.98144531 57.3605957 C99.09140146 43.10796811 82.75107548 41.85946983 63.14941406 41.8762207 C61.24428719 41.87232598 59.33916118 41.86798973 57.43403625 41.86323547 C53.45249612 41.85580201 49.47104469 41.85604333 45.48950195 41.86132812 C40.41951101 41.86711486 35.34988634 41.85019684 30.27995586 41.82698345 C26.34796572 41.81215877 22.41606199 41.81138629 18.48404884 41.81449318 C16.61638477 41.81398422 14.7487153 41.80882751 12.88107872 41.79868126 C-5.2809949 41.71211632 -24.41124004 43.55401329 -37.29980469 58.17700195 Z " fill="#4CA633" transform="translate(2401.2998046875,229.822998046875)"/>
<path d="M0 0 C1.06917664 -0.00708481 2.13835327 -0.01416962 3.2399292 -0.02146912 C4.40306137 -0.0189917 5.56619354 -0.01651428 6.76457214 -0.01396179 C8.61443222 -0.02162819 8.61443222 -0.02162819 10.50166321 -0.02944946 C13.88051385 -0.04096325 17.259119 -0.04341877 20.63797212 -0.04088616 C23.4699981 -0.03981349 26.30200172 -0.04470843 29.13402289 -0.04949158 C35.83006293 -0.06058613 42.52604689 -0.0610273 49.22209167 -0.05497742 C56.09236841 -0.04896438 62.96243896 -0.06118031 69.83268052 -0.08254749 C75.75571317 -0.10028048 81.67868096 -0.1061458 87.60173911 -0.10290974 C91.12785831 -0.10111206 94.65383112 -0.10357716 98.17992592 -0.11762428 C128.99762819 -0.22998471 157.1183265 3.95915609 179.90202332 26.46382141 C203.50704783 50.85227387 208.01287849 79.2029087 207.86979675 111.9108429 C207.85905199 114.82389564 207.86977673 117.73633374 207.88249207 120.64936829 C207.90427116 148.86507931 203.54458335 173.70422353 185.60905457 196.26069641 C184.46436707 197.80757141 184.46436707 197.80757141 183.29655457 199.38569641 C173.16682684 210.22214933 160.7896451 217.97220957 146.98405457 223.13569641 C146.22092957 223.42202942 145.45780457 223.70836243 144.67155457 224.00337219 C134.28503692 227.68783867 124.15113041 228.56102409 113.18644714 228.5670929 C111.89071274 228.57541641 110.59497833 228.58373993 109.25997925 228.59231567 C105.73953557 228.61405479 102.21917856 228.62302988 98.69867539 228.62814212 C96.49394812 228.63180618 94.28924292 228.63805622 92.08452415 228.64514351 C84.37890515 228.66955324 76.67335282 228.68267428 68.96769714 228.68623352 C61.80505969 228.68987618 54.6428487 228.71984508 47.48034173 228.7616381 C41.30848132 228.79637829 35.13676231 228.81178249 28.96480483 228.81247956 C25.2880005 228.81327022 21.61163328 228.82191341 17.9349308 228.85047722 C13.83747411 228.88160799 9.74103428 228.87258066 5.64347839 228.86006165 C4.43652313 228.87489594 3.22956787 228.88973022 1.98603821 228.90501404 C-5.11541563 228.84325008 -9.92553516 227.9621704 -15.39094543 223.26069641 C-20.83572832 217.67262977 -21.69048754 211.75296233 -21.65164185 204.19004822 C-21.65546739 203.39427348 -21.65929294 202.59849875 -21.66323441 201.77860963 C-21.67352549 199.12104076 -21.66957968 196.46368952 -21.66560364 193.80610657 C-21.66995228 191.89704184 -21.67513594 189.98797885 -21.68109131 188.07891846 C-21.69447654 182.89913005 -21.69506047 177.71941463 -21.69252801 172.53961229 C-21.69145792 168.21310285 -21.69634268 163.88660815 -21.70113343 159.56010187 C-21.7122271 149.35156486 -21.71266689 139.14306465 -21.70661926 128.93452454 C-21.70057952 118.40877646 -21.71289086 107.88316205 -21.73418933 97.35743678 C-21.75181213 88.31521873 -21.75780559 79.2730432 -21.75455159 70.23080862 C-21.75273958 64.83261885 -21.75536669 59.43452444 -21.76926613 54.03635025 C-21.78185073 48.95885607 -21.77989429 43.88157007 -21.76685524 38.80407906 C-21.76449125 36.94331733 -21.76721777 35.08254093 -21.77547836 33.22179604 C-21.78596271 30.67606101 -21.77783184 28.13102232 -21.76516724 25.58531189 C-21.77622866 24.48830269 -21.77622866 24.48830269 -21.78751355 23.36913168 C-21.72456325 17.328853 -20.48537319 11.77576237 -16.52375793 7.01850891 C-15.86117981 6.47968079 -15.19860168 5.94085266 -14.51594543 5.38569641 C-13.85852356 4.83139954 -13.20110168 4.27710266 -12.52375793 3.70600891 C-8.4527101 0.94724023 -4.88898604 0.01083967 0 0 Z M20.60905457 42.26069641 C20.60905457 89.78069641 20.60905457 137.30069641 20.60905457 186.26069641 C36.86155457 186.32257141 53.11405457 186.38444641 69.85905457 186.44819641 C77.52623718 186.48916443 77.52623718 186.48916443 85.34831238 186.53096008 C89.97315678 186.541 89.97315678 186.541 94.5980072 186.54702759 C96.6408332 186.55160202 98.68365163 186.56208545 100.72642517 186.5774231 C119.81610064 186.71345469 135.80554891 185.46182816 150.28483582 171.70991516 C159.28739089 162.22318905 164.67690722 150.83845607 164.77018738 137.65107727 C164.77979492 136.54900436 164.78940247 135.44693146 164.79930115 134.3114624 C164.80355103 133.12810806 164.8078009 131.94475372 164.81217957 130.72554016 C164.81787964 129.49590042 164.82357971 128.26626068 164.82945251 126.99935913 C164.83889372 124.39613197 164.845433 121.79289291 164.84928894 119.18965149 C164.85895913 115.23720476 164.88997742 111.28528602 164.92155457 107.33296204 C164.92808872 104.79715781 164.93333757 102.26134989 164.93717957 99.72554016 C164.95569977 97.97176308 164.95569977 97.97176308 164.97459412 96.18255615 C164.93348543 80.78425077 160.52721867 67.63890558 149.86296082 56.32710266 C137.93631817 45.39262439 123.66653957 42.08300509 107.91007996 42.14717102 C106.46659132 42.14699022 106.46659132 42.14699022 104.99394131 42.14680576 C101.89817379 42.14754843 98.80246748 42.15514713 95.70671082 42.16304016 C93.78772511 42.16451158 91.868739 42.16553106 89.94975281 42.16609192 C82.85701392 42.17132161 75.76428363 42.18528288 68.67155457 42.19819641 C44.88061707 42.22913391 44.88061707 42.22913391 20.60905457 42.26069641 Z " fill="#4CA633" transform="translate(1319.3909454345703,229.7393035888672)"/>
<path d="M0 0 C1.6691748 -0.00021904 1.6691748 -0.00021904 3.37207031 -0.0004425 C7.04054735 0.0002527 10.70897326 0.00802676 14.37744141 0.01586914 C16.92477389 0.01773471 19.47210673 0.01915796 22.0194397 0.02015686 C28.03288133 0.02358147 34.0463011 0.03145846 40.05973399 0.04150635 C46.90859154 0.05270068 53.75744999 0.05818629 60.60631442 0.06320179 C74.68888954 0.073642 88.77144163 0.09197417 102.85400391 0.11352539 C102.85400391 13.97352539 102.85400391 27.83352539 102.85400391 42.11352539 C98.09410034 42.12754395 98.09410034 42.12754395 93.23803711 42.1418457 C82.71669459 42.17571518 72.19554615 42.23131951 61.67435932 42.29742813 C55.29957916 42.33682336 48.9249355 42.36905095 42.55004883 42.38452148 C36.39014573 42.39974029 30.23061811 42.43427884 24.0708828 42.48183441 C21.72877465 42.49659437 19.38661289 42.50456329 17.04445839 42.50540924 C0.05846238 42.51770697 -15.66635748 42.63388678 -28.45849609 55.42602539 C-32.79417057 62.33098844 -35.11218576 69.04051323 -35.46240234 77.19555664 C-35.52524414 78.59257812 -35.52524414 78.59257812 -35.58935547 80.01782227 C-35.62867187 80.9775293 -35.66798828 81.93723633 -35.70849609 82.92602539 C-35.75167969 83.90506836 -35.79486328 84.88411133 -35.83935547 85.89282227 C-35.94501869 88.29959566 -36.04711937 90.70646522 -36.14599609 93.11352539 C-35.55168258 93.10983822 -34.95736906 93.10615105 -34.34504604 93.10235214 C-19.81919799 93.01364093 -5.29336604 92.94764184 9.23268986 92.9062767 C16.25768383 92.88573612 23.28249591 92.85778054 30.30737305 92.81176758 C37.09605551 92.76732326 43.88454955 92.74433838 50.67336845 92.73401642 C53.25392046 92.72666737 55.83446303 92.71231724 58.41493416 92.69060516 C80.0229545 92.51614682 99.12906386 93.60571423 115.72900391 109.30102539 C128.7292104 123.22846641 132.59497535 139.4382439 132.37548828 157.96801758 C132.35399893 160.11402213 132.37546043 162.25668186 132.40087891 164.40258789 C132.43948943 183.02294429 127.43544291 200.16056881 114.30322266 213.89477539 C103.2989675 223.86354243 90.93096355 228.246633 76.34472656 228.29052734 C75.39273376 228.29709854 74.44074097 228.30366974 73.4598999 228.31044006 C70.31262117 228.33012935 67.16539021 228.34182984 64.01806641 228.35180664 C62.93811779 228.35588217 61.85816917 228.3599577 60.74549484 228.36415672 C55.02238915 228.38500509 49.2993073 228.39930866 43.57617188 228.40869141 C37.69796103 228.41971558 31.82013291 228.45407302 25.94205666 228.49386311 C21.39492141 228.52016376 16.84787522 228.52839543 12.30067062 228.53197289 C10.13599456 228.53680905 7.97132166 228.54833689 5.80672073 228.56701088 C-9.6265485 228.69181152 -23.49383792 227.78479405 -37.39599609 220.36352539 C-38.05801025 220.01918457 -38.72002441 219.67484375 -39.40209961 219.32006836 C-59.55181275 208.574532 -69.81924403 193.64881908 -76.5769043 172.40185547 C-78.13001524 166.15676371 -78.30312115 159.98306437 -78.32299805 153.5925293 C-78.33285484 152.19818161 -78.33285484 152.19818161 -78.34291077 150.77566528 C-78.3625405 147.71380513 -78.37428682 144.65199394 -78.38427734 141.59008789 C-78.38835287 140.53653484 -78.3924284 139.4829818 -78.39662743 138.3975029 C-78.41744994 132.81472727 -78.43176496 127.23197591 -78.44116211 121.64916992 C-78.45218433 115.92590735 -78.48654699 110.20303806 -78.52633381 104.47991371 C-78.55267488 100.04250441 -78.56086963 95.60518611 -78.56444359 91.16770554 C-78.56926892 89.0605035 -78.58076469 86.95330439 -78.59948158 84.84617996 C-78.72831023 69.37431651 -78.03347362 53.78200589 -70.58349609 39.80102539 C-70.07858643 38.82649414 -70.07858643 38.82649414 -69.56347656 37.83227539 C-60.73034522 21.65210858 -44.73332646 9.46137635 -27.34912109 3.82446289 C-18.03624062 1.09347052 -9.67044946 -0.03328946 0 0 Z M-36.14599609 135.11352539 C-36.23446927 138.57169226 -36.28687334 142.02956119 -36.33349609 145.48852539 C-36.35863281 146.4540332 -36.38376953 147.41954102 -36.40966797 148.41430664 C-36.51627936 159.00437143 -34.04756215 167.94144376 -27.14599609 176.11352539 C-16.1924531 186.89892189 -2.61698828 186.71617781 11.74853516 186.64477539 C13.66900325 186.64747455 15.58947002 186.65136048 17.50993347 186.65637207 C21.5149754 186.6622401 25.51965829 186.65378687 29.5246582 186.63500977 C34.65038538 186.61214437 39.77527812 186.62540824 44.90097523 186.64929962 C48.85845718 186.66376485 52.81574165 186.6591496 56.7732296 186.64878845 C58.66341947 186.64612718 60.55362747 186.64936978 62.44379616 186.65870667 C65.08337512 186.66889292 67.72160526 186.65334631 70.36108398 186.63110352 C71.13574509 186.63920044 71.91040619 186.64729736 72.70854187 186.65563965 C77.90386652 186.57474371 80.83871701 185.3732992 84.85400391 182.11352539 C89.89702827 176.37491146 89.0730123 170.09921071 89.09423828 162.82666016 C89.10391896 160.81864512 89.13511681 158.81077157 89.16650391 156.80297852 C89.17166016 155.52745117 89.17681641 154.25192383 89.18212891 152.93774414 C89.19147461 151.77331787 89.20082031 150.6088916 89.21044922 149.40917969 C88.6569675 144.29174834 87.0319269 141.10405154 83.10400391 137.80102539 C76.56344893 134.404968 69.25557273 134.97395181 62.0534668 135 C60.98930542 134.99985397 59.92514404 134.99970795 58.82873535 134.9995575 C55.32802254 135.00025151 51.82736362 135.00801994 48.32666016 135.01586914 C45.89285817 135.01773514 43.4590558 135.01915818 41.0252533 135.02015686 C34.63185583 135.02396773 28.23848123 135.0337858 21.84509277 135.04486084 C15.31616525 135.05510572 8.78723403 135.05966107 2.25830078 135.06469727 C-10.54314124 135.07540937 -23.34456745 135.0922753 -36.14599609 135.11352539 Z " fill="#4CA633" transform="translate(2145.14599609375,229.886474609375)"/>
<path d="M0 0 C18.28998442 -0.06787346 36.57986594 -0.12307257 54.86994457 -0.15543652 C63.36345637 -0.17086697 71.85688403 -0.19188287 80.3503418 -0.22631836 C87.75828512 -0.25633832 95.16616746 -0.27560274 102.57416993 -0.28226548 C106.49208622 -0.28615654 110.40982814 -0.29522008 114.32768822 -0.31719017 C118.02538794 -0.33775506 121.72284368 -0.34379405 125.42059517 -0.33932304 C127.40410625 -0.34052473 129.38759157 -0.35656109 131.37103271 -0.3732605 C148.00473104 -0.31669386 162.71672266 4.01778299 174.94140625 15.7265625 C184.71439515 26.5195028 191.09370751 40.72537097 191.14044189 55.44909668 C191.14615204 56.53102295 191.15186218 57.61294922 191.15774536 58.72766113 C191.15942215 60.4934552 191.15942215 60.4934552 191.16113281 62.29492188 C191.16609772 63.54273438 191.17106262 64.79054688 191.17617798 66.07617188 C191.18826729 69.49401068 191.19574049 72.91178845 191.20018864 76.32964134 C191.20312724 78.47037897 191.20723365 80.61111135 191.21169281 82.75184631 C191.22536225 89.46503279 191.23502983 96.17820712 191.2388947 102.89140654 C191.24336474 110.61135287 191.26086572 118.33112121 191.2898953 126.05101347 C191.31161019 132.03598493 191.32160429 138.02090669 191.32293582 144.00591707 C191.32397749 147.57163635 191.32974683 151.13718821 191.34775543 154.7028656 C191.36751044 158.69199153 191.36290842 162.68075215 191.35644531 166.66992188 C191.3656601 167.83092407 191.37487488 168.99192627 191.3843689 170.18811035 C191.30142941 186.63682455 186.73177592 199.7384365 175.34375 211.71484375 C162.2241245 224.50647861 147.79756204 228.32485972 129.87304688 228.22705078 C128.45316577 228.22648585 127.03328409 228.22680483 125.61340332 228.22793579 C121.77923673 228.22850711 117.94519654 228.21678877 114.11105919 228.20278788 C110.09654769 228.19024352 106.08203296 228.1891071 102.06750488 228.18673706 C94.47456012 228.18053315 86.88167329 228.16413713 79.28875399 228.14403808 C70.64061541 228.12164511 61.992474 228.11067712 53.34431362 228.10064721 C35.56283628 228.07976989 17.7814383 228.04310732 0 228 C0 214.14 0 200.28 0 186 C4.14900879 185.98541748 8.29801758 185.97083496 12.57275391 185.95581055 C26.27125453 185.90550474 39.9696369 185.83906719 53.66802406 185.76428509 C61.97447058 185.71933342 70.28087428 185.67991732 78.58740234 185.65356445 C85.82798966 185.63057926 93.06844142 185.59717545 100.30892122 185.55129844 C104.142162 185.52737316 107.97526858 185.50863987 111.80858231 185.50238609 C115.41852994 185.49633202 119.02813425 185.47632093 122.63795471 185.44572449 C124.59053553 185.4327733 126.54319657 185.43451332 128.49581909 185.4367218 C136.69551628 185.43793839 136.69551628 185.43793839 144 182 C153.03392888 170.16243801 148.76292258 143.77186466 149 135 C99.83 135 50.66 135 0 135 C0 121.14 0 107.28 0 93 C49.17 93 98.34 93 149 93 C149.5170171 66.17107876 149.5170171 66.17107876 145 46 C138.26026917 42.04479716 130.02381639 42.55890773 122.49389648 42.56762695 C121.15267544 42.55859413 119.81146261 42.54826321 118.47026062 42.53674316 C114.85518413 42.50932515 111.24026492 42.49990953 107.62509799 42.49388909 C103.83741019 42.48446553 100.04983806 42.45825913 96.26222229 42.43388367 C89.10143653 42.39032399 81.94067336 42.36171253 74.77979571 42.33856028 C66.62248057 42.31145191 58.46528239 42.26754404 50.30805099 42.22227156 C33.53874783 42.1295762 16.7694567 42.06004375 0 42 C0 28.14 0 14.28 0 0 Z " fill="#4CA633" transform="translate(1835,230)"/>
<path d="M0 0 C13.53300125 0 13.53300125 0 18.19921875 0.6640625 C19.24956299 0.81311035 20.29990723 0.9621582 21.38208008 1.11572266 C22.47286865 1.28378418 23.56365723 1.4518457 24.6875 1.625 C26.44453247 1.89449463 26.44453247 1.89449463 28.23706055 2.16943359 C81.01751625 10.61061482 130.41676963 32.39525475 172 66 C172.51739746 66.41443359 173.03479492 66.82886719 173.56787109 67.25585938 C181.77820692 73.88024996 189.33130427 81.13048815 196.8125 88.5625 C198.11960937 89.85571167 198.11960937 89.85571167 199.453125 91.17504883 C205.3897621 97.14048811 210.78643367 103.39665654 216 110 C216.80908813 111.01211548 216.80908813 111.01211548 217.63452148 112.04467773 C226.12568383 122.75852249 233.24469941 134.13010929 240 146 C240.62068359 147.07652832 240.62068359 147.07652832 241.25390625 148.17480469 C260.99827976 182.66229539 268.87678281 220.73774383 271 260 C258.31729149 260.74136918 245.70428397 261.13809004 233 261 C232.96559814 260.36312256 232.93119629 259.72624512 232.89575195 259.07006836 C231.15919225 228.96162309 224.42011904 201.59072685 210 175 C209.65888184 174.35401855 209.31776367 173.70803711 208.96630859 173.04248047 C190.33214764 137.779045 162.12672659 107.35695562 130 84 C129.41476562 83.57348145 128.82953125 83.14696289 128.2265625 82.70751953 C119.79812827 76.61124888 111.01417544 71.17363708 102 66 C101.10740479 65.48373047 101.10740479 65.48373047 100.19677734 64.95703125 C68.90118391 47.01983688 35.63120594 40.1926896 0 38 C0 25.46 0 12.92 0 0 Z " fill="#58B53D" transform="translate(414,78)"/>
<path d="M0 0 C49.56060409 0 98.26517906 18.81021773 135 52 C135.91136719 52.79148438 136.82273437 53.58296875 137.76171875 54.3984375 C142.96175146 58.95332414 147.61622576 63.66247049 152 69 C152.89191721 70.04427927 153.78384522 71.08854931 154.67578125 72.1328125 C178.98266409 101.05695918 196.43408763 140.28897393 196.0625 178.5625 C196.05347656 179.78066406 196.04445313 180.99882812 196.03515625 182.25390625 C196.02355469 183.16011719 196.01195312 184.06632813 196 185 C192.88045872 186.55977064 189.57040616 186.12104126 186.1484375 186.09765625 C185.37440582 186.0962413 184.60037415 186.09482635 183.80288696 186.09336853 C181.32688558 186.08776403 178.85097412 186.07521083 176.375 186.0625 C174.69791797 186.05748558 173.02083453 186.05292257 171.34375 186.04882812 C167.22913194 186.03779315 163.11458122 186.02052554 159 186 C158.94054199 185.07272095 158.94054199 185.07272095 158.87988281 184.12670898 C158.04173847 171.65294472 156.98826654 159.91197489 153 148 C152.79922852 147.37641602 152.59845703 146.75283203 152.39160156 146.11035156 C147.12090735 129.9246912 138.79615931 115.14849321 128 102 C127.54898926 101.4436084 127.09797852 100.8872168 126.63330078 100.31396484 C100.29242601 67.96098388 61.71223643 44.55545982 19.90869141 39.63623047 C13.2770894 38.96415602 6.65145136 38.48374192 0 38 C0 25.46 0 12.92 0 0 Z " fill="#59B63F" transform="translate(414,153)"/>
<path d="M0 0 C4.82069431 2.78572909 8.75379969 7.07326579 10.625 12.375 C12.06504068 19.57520339 11.35494974 24.7646701 8.1875 31.375 C0.21995099 40.70286225 -12.35992983 47.04780134 -22.55371094 53.71630859 C-40.99573641 65.78437684 -59.32048314 78.01751623 -77.55859375 90.39135742 C-86.08925854 96.17510479 -94.64312096 101.92392595 -103.25 107.59375 C-104.07653076 108.14502563 -104.90306152 108.69630127 -105.75463867 109.26428223 C-113.77364117 114.5126394 -119.84986144 116.31135104 -129.375 114.375 C-134.44224265 111.88918285 -138.12040741 107.94415116 -141.375 103.375 C-142.49072591 100.02782226 -142.68574075 97.27621181 -142.8125 93.75 C-142.87308594 92.58210938 -142.93367188 91.41421875 -142.99609375 90.2109375 C-142.03910189 84.30045945 -138.92642612 79.62425487 -134.42835999 75.65890503 C-132.22580815 74.07109544 -129.97959367 72.60875884 -127.67578125 71.171875 C-126.82453674 70.61976349 -125.97329224 70.06765198 -125.09625244 69.49880981 C-122.30332693 67.69148393 -119.49550268 65.90879031 -116.6875 64.125 C-113.70841436 62.20371576 -110.73370446 60.27577856 -107.75914001 58.34750366 C-105.71003423 57.01967076 -103.65961261 55.69386641 -101.60792542 54.37002563 C-91.86381787 48.07570899 -82.24601056 41.6022615 -72.64761353 35.08865356 C-59.93672224 26.46505704 -47.20857719 17.86671457 -34.37716675 9.42315674 C-33.1443383 8.61163971 -31.91247394 7.79865582 -30.68167114 6.98406982 C-29.02264881 5.88702539 -27.3591 4.79683525 -25.6953125 3.70703125 C-24.32270264 2.80561401 -24.32270264 2.80561401 -22.92236328 1.88598633 C-15.79403844 -2.34222935 -7.73200235 -3.52121549 0 0 Z " fill="#4CA633" transform="translate(2506.375,287.625)"/>
<path d="M0 0 C36.276277 0 67.30236343 14.4198636 93.015625 39.9453125 C111.03794941 58.48786895 123 83.90504408 123 110 C110.13 110 97.26 110 84 110 C82.02 104.06 80.04 98.12 78 92 C76.62437481 88.87183313 75.33219632 86.01062777 73.6875 83.0625 C73.30996582 82.36850098 72.93243164 81.67450195 72.54345703 80.95947266 C69.02735294 74.69100243 64.87079281 69.29710056 60 64 C59.19369141 63.05640625 59.19369141 63.05640625 58.37109375 62.09375 C43.28838115 45.46118472 21.17860776 41.02551539 0 38 C0 25.46 0 12.92 0 0 Z " fill="#5CBA43" transform="translate(414,229)"/>
<path d="M0 0 C1.24900356 1.03910877 2.4788054 2.10176784 3.6875 3.1875 C4.30367188 3.71214844 4.91984375 4.23679687 5.5546875 4.77734375 C12.93556599 11.50883164 17.08337589 20.81609802 18.0234375 30.73046875 C18.17065964 44.46629437 15.07379213 54.90959118 5.6875 65.1875 C-4.57914777 74.34746103 -15.56150187 77.09230517 -28.99609375 76.5703125 C-39.96043784 75.81217781 -49.56367546 70.40285603 -57.0625 62.5 C-65.92793028 51.79963183 -67.41004224 39.56242025 -66.3125 26.1875 C-64.28783758 15.70310159 -57.83695577 6.4087952 -49.25 0.1875 C-34.54581877 -9.23941373 -14.63319216 -10.43629192 0 0 Z " fill="#3F910F" transform="translate(420.3125,333.8125)"/>
<path d="M0 0 C0.77988281 -0.04898438 1.55976562 -0.09796875 2.36328125 -0.1484375 C5.76727155 0.61817544 6.65415565 2.60329173 8.6875 5.375 C9.77258588 7.10631481 10.81965197 8.86190875 11.83203125 10.63671875 C12.41952148 11.66128174 13.00701172 12.68584473 13.61230469 13.74145508 C14.54671387 15.38537231 14.54671387 15.38537231 15.5 17.0625 C16.49319944 18.79715213 17.48640572 20.53180039 18.48001099 22.26622009 C19.51545779 24.0748649 20.54910101 25.88453158 21.58251953 27.69433594 C25.01571799 33.70268267 28.47826147 39.69412361 31.9375 45.6875 C32.56889893 46.78344482 33.20029785 47.87938965 33.85083008 49.00854492 C34.4414624 50.03310791 35.03209473 51.0576709 35.640625 52.11328125 C36.15786133 53.01087158 36.67509766 53.90846191 37.20800781 54.83325195 C38.6792272 57.36078745 40.17701829 59.8707655 41.6875 62.375 C47.58502407 52.41165345 53.40912709 42.40793942 59.1875 32.375 C61.09670081 29.06623047 63.00634543 25.75771738 64.91601562 22.44921875 C66.53736658 19.63554024 68.15194349 16.81808052 69.765625 14 C70.65585559 12.45810555 71.54645034 10.91642126 72.4375 9.375 C72.83130859 8.68148437 73.22511719 7.98796875 73.63085938 7.2734375 C75.44354741 4.15497243 76.63316495 2.41122337 79.6875 0.375 C86.76308877 -0.2988656 86.76308877 -0.2988656 89.78631592 1.90496826 C92.39213189 5.29046271 92.21991789 8.25915198 92.14160156 12.35644531 C92.14218567 13.1568222 92.14276978 13.9571991 92.14337158 14.78182983 C92.14058875 17.42270545 92.10948834 20.06244701 92.078125 22.703125 C92.0706633 24.53586205 92.06497003 26.36860709 92.06097412 28.20135498 C92.04571221 33.02170902 92.00642562 37.84157985 91.9621582 42.66174316 C91.92121751 47.58172061 91.90296567 52.50177625 91.8828125 57.421875 C91.83993174 67.07316297 91.76957736 76.72396568 91.6875 86.375 C86.4075 86.375 81.1275 86.375 75.6875 86.375 C75.3575 71.195 75.0275 56.015 74.6875 40.375 C72.99625 43.345 71.305 46.315 69.5625 49.375 C68.46571968 51.28956455 67.36817382 53.20369096 66.26953125 55.1171875 C63.81036574 59.40353137 61.37462595 63.70228871 58.94921875 68.0078125 C57.71663828 70.17215552 56.48357595 72.3362242 55.25 74.5 C54.67169434 75.53640625 54.09338867 76.5728125 53.49755859 77.640625 C52.66538818 79.09082031 52.66538818 79.09082031 51.81640625 80.5703125 C51.33244385 81.42641113 50.84848145 82.28250977 50.34985352 83.16455078 C48.39284993 85.76679934 46.60866879 86.96579579 43.6875 88.375 C40.25 88.625 40.25 88.625 36.6875 87.375 C31.06416299 80.85916343 27.29291275 72.45166822 23.1875 64.9375 C21.90874581 62.60407991 20.62671537 60.27252022 19.34375 57.94140625 C18.78494141 56.91990479 18.22613281 55.89840332 17.65039062 54.84594727 C15.0827041 50.30554933 12.37118736 45.84781227 9.6875 41.375 C9.3575 56.225 9.0275 71.075 8.6875 86.375 C3.0775 86.375 -2.5325 86.375 -8.3125 86.375 C-8.38029186 76.03065695 -8.43532541 65.68646158 -8.46793652 55.3419466 C-8.48358864 50.53850866 -8.5048187 45.73523066 -8.53881836 40.93188477 C-8.57142789 36.29588945 -8.58935643 31.66004792 -8.59713173 27.02394676 C-8.60267237 25.25571459 -8.61349191 23.48749077 -8.62969017 21.71932411 C-8.65148578 19.2414904 -8.65446606 16.76429119 -8.65307617 14.28637695 C-8.663862 13.55629425 -8.67464783 12.82621155 -8.6857605 12.07400513 C-8.64541354 5.42119069 -6.99947066 0.29784982 0 0 Z " fill="#BC483F" transform="translate(1809.3125,584.625)"/>
<path d="M0 0 C1.14085556 -0.00478363 2.28171112 -0.00956726 3.45713806 -0.01449585 C5.87207415 -0.01789628 8.28705618 -0.00868405 10.7019043 0.01220703 C14.36549131 0.03879505 18.02596572 0.01255049 21.68945312 -0.01953125 C24.04297543 -0.01622381 26.39649582 -0.0098107 28.75 0 C29.83168961 -0.01012115 30.91337921 -0.02024231 32.02784729 -0.03067017 C42.4506627 0.12667015 51.96535955 3.34164014 59.58984375 10.6484375 C68.16720571 20.52772047 69.69014075 30.36950824 69.65234375 43.0390625 C69.66845703 44.1115625 69.68457031 45.1840625 69.70117188 46.2890625 C69.70807741 57.64175972 67.18560972 67.34368979 59.3671875 75.796875 C50.45296669 84.31805256 41.57727403 86.28318408 29.47265625 86.23046875 C28.27550995 86.23666733 27.07836365 86.24286591 25.84494019 86.24925232 C23.33218189 86.25631679 20.81937646 86.25323598 18.30664062 86.24047852 C14.45486516 86.22652635 10.60548029 86.26084174 6.75390625 86.29882812 C4.30598899 86.29977858 1.85806868 86.29792446 -0.58984375 86.29296875 C-1.74088593 86.30622696 -2.8919281 86.31948517 -4.07785034 86.33314514 C-11.90927603 86.24129076 -11.90927603 86.24129076 -15.39013672 83.56542969 C-16.94002986 80.02468958 -17.11656019 77.47779389 -17.05078125 73.61328125 C-17.04512146 72.95447464 -17.03946167 72.29566803 -17.03363037 71.61689758 C-17.01136864 69.52769034 -16.96119955 67.44024477 -16.91015625 65.3515625 C-16.89007769 63.92906136 -16.87182929 62.50653313 -16.85546875 61.08398438 C-16.81494957 57.60946457 -16.73666242 54.13871772 -16.66015625 50.6640625 C-23.26015625 50.6640625 -29.86015625 50.6640625 -36.66015625 50.6640625 C-36.66015625 45.7140625 -36.66015625 40.7640625 -36.66015625 35.6640625 C-30.06015625 35.6640625 -23.46015625 35.6640625 -16.66015625 35.6640625 C-16.71816406 33.55644531 -16.77617188 31.44882812 -16.8359375 29.27734375 C-16.87498367 27.22538003 -16.90531301 25.17345843 -16.93481445 23.12133789 C-16.95988772 21.70024959 -16.99395624 20.27928937 -17.03735352 18.85864258 C-17.09833483 16.81038788 -17.12643387 14.76384367 -17.1484375 12.71484375 C-17.17462158 11.48419189 -17.20080566 10.25354004 -17.2277832 8.9855957 C-16.66015625 5.6640625 -16.66015625 5.6640625 -14.85839844 2.76489258 C-10.04133221 -0.39929482 -5.64858109 -0.05216926 0 0 Z M0.33984375 16.6640625 C0.33984375 22.9340625 0.33984375 29.2040625 0.33984375 35.6640625 C6.93984375 35.6640625 13.53984375 35.6640625 20.33984375 35.6640625 C20.33984375 40.6140625 20.33984375 45.5640625 20.33984375 50.6640625 C13.73984375 50.6640625 7.13984375 50.6640625 0.33984375 50.6640625 C0.33984375 56.9340625 0.33984375 63.2040625 0.33984375 69.6640625 C5.60603419 69.75627206 10.8693854 69.83579091 16.13574219 69.88378906 C17.92425059 69.90381209 19.71269429 69.93103904 21.50097656 69.96582031 C24.08284537 70.01475205 26.66384325 70.03712415 29.24609375 70.0546875 C30.03600708 70.07533264 30.82592041 70.09597778 31.63977051 70.11724854 C37.3211185 70.1195065 41.58684852 68.8248724 46.33984375 65.6640625 C52.8339522 58.82815887 52.70488889 52.9254176 52.71484375 43.8515625 C52.75158203 42.10649414 52.75158203 42.10649414 52.7890625 40.32617188 C52.81577334 32.50434638 52.12001631 27.88896125 46.8125 21.95703125 C40.83271761 17.26927941 36.25309189 16.37000304 28.7578125 16.46875 C27.53654411 16.47299484 27.53654411 16.47299484 26.29060364 16.47732544 C23.70269775 16.48847666 21.11514417 16.51357167 18.52734375 16.5390625 C16.76758314 16.54909885 15.00781708 16.55822356 13.24804688 16.56640625 C8.94506918 16.58669375 4.64284857 16.62585131 0.33984375 16.6640625 Z " fill="#BC483F" transform="translate(1458.66015625,585.3359375)"/>
<path d="M0 0 C0.92768692 -0.01283524 1.85537384 -0.02567047 2.81117249 -0.03889465 C3.80088547 -0.04628159 4.79059845 -0.05366852 5.81030273 -0.0612793 C6.83695541 -0.06935104 7.86360809 -0.07742279 8.92137146 -0.08573914 C11.08737516 -0.09954111 13.25340026 -0.11028056 15.41943359 -0.11816406 C17.6375972 -0.12972972 19.85573201 -0.15025296 22.07373047 -0.1796875 C25.27778036 -0.22220547 28.48100639 -0.23850715 31.68530273 -0.2487793 C32.67703995 -0.26628738 33.66877716 -0.28379547 34.69056702 -0.30183411 C41.53669419 -0.28017044 41.53669419 -0.28017044 44.77490234 2.01611328 C47.45492072 6.13360029 47.31860502 9.94429004 47.29492188 14.67773438 C47.2950679 15.43895096 47.29521393 16.20016754 47.29536438 16.98445129 C47.29466772 19.50048675 47.28688687 22.01644818 47.27905273 24.5324707 C47.27718768 26.27696187 47.27576419 28.02145356 47.27476501 29.76594543 C47.27094674 34.35758917 47.26112233 38.94920128 47.25006104 43.54083252 C47.2398321 48.22619194 47.23526421 52.91155646 47.23022461 57.59692383 C47.21949946 66.79029933 47.20190822 75.98364307 47.18139648 85.17700195 C41.57139648 85.17700195 35.96139648 85.17700195 30.18139648 85.17700195 C30.18139648 78.57700195 30.18139648 71.97700195 30.18139648 65.17700195 C12.69139648 65.17700195 -4.79860352 65.17700195 -22.81860352 65.17700195 C-22.81860352 71.77700195 -22.81860352 78.37700195 -22.81860352 85.17700195 C-28.09860352 85.17700195 -33.37860352 85.17700195 -38.81860352 85.17700195 C-38.89312639 78.09694686 -38.94738198 71.01712347 -38.98339844 63.93676758 C-38.99842357 61.53145364 -39.01884948 59.12616682 -39.04492188 56.72094727 C-39.08158152 53.25050131 -39.09839323 49.78041968 -39.11157227 46.30981445 C-39.12705612 45.24586456 -39.14253998 44.18191467 -39.15849304 43.08572388 C-39.16113398 31.19412403 -35.85198319 20.89251812 -27.81469727 11.9465332 C-20.0772033 4.56892268 -10.75316166 0.13039997 0 0 Z M-16.90063477 24.80981445 C-22.84329978 32.14434602 -22.81860352 38.83740529 -22.81860352 48.17700195 C-5.32860352 48.17700195 12.16139648 48.17700195 30.18139648 48.17700195 C30.18139648 37.61700195 30.18139648 27.05700195 30.18139648 16.17700195 C25.43764648 16.11512695 20.69389648 16.05325195 15.80639648 15.98950195 C14.33122559 15.96218994 12.85605469 15.93487793 11.33618164 15.90673828 C0.11674835 15.83628539 -8.61433818 16.80217209 -16.90063477 24.80981445 Z " fill="#BC483F" transform="translate(2412.818603515625,585.822998046875)"/>
<path d="M0 0 C0.92768692 -0.01283524 1.85537384 -0.02567047 2.81117249 -0.03889465 C3.80088547 -0.04628159 4.79059845 -0.05366852 5.81030273 -0.0612793 C6.83695541 -0.06935104 7.86360809 -0.07742279 8.92137146 -0.08573914 C11.08737516 -0.09954111 13.25340026 -0.11028056 15.41943359 -0.11816406 C17.6375972 -0.12972972 19.85573201 -0.15025296 22.07373047 -0.1796875 C25.27778036 -0.22220547 28.48100639 -0.23850715 31.68530273 -0.2487793 C32.67703995 -0.26628738 33.66877716 -0.28379547 34.69056702 -0.30183411 C41.53669419 -0.28017044 41.53669419 -0.28017044 44.77490234 2.01611328 C47.45492072 6.13360029 47.31860502 9.94429004 47.29492188 14.67773438 C47.2950679 15.43895096 47.29521393 16.20016754 47.29536438 16.98445129 C47.29466772 19.50048675 47.28688687 22.01644818 47.27905273 24.5324707 C47.27718768 26.27696187 47.27576419 28.02145356 47.27476501 29.76594543 C47.27094674 34.35758917 47.26112233 38.94920128 47.25006104 43.54083252 C47.2398321 48.22619194 47.23526421 52.91155646 47.23022461 57.59692383 C47.21949946 66.79029933 47.20190822 75.98364307 47.18139648 85.17700195 C41.57139648 85.17700195 35.96139648 85.17700195 30.18139648 85.17700195 C30.18139648 78.57700195 30.18139648 71.97700195 30.18139648 65.17700195 C12.69139648 65.17700195 -4.79860352 65.17700195 -22.81860352 65.17700195 C-22.81860352 71.77700195 -22.81860352 78.37700195 -22.81860352 85.17700195 C-28.09860352 85.17700195 -33.37860352 85.17700195 -38.81860352 85.17700195 C-38.89312639 78.09694686 -38.94738198 71.01712347 -38.98339844 63.93676758 C-38.99842357 61.53145364 -39.01884948 59.12616682 -39.04492188 56.72094727 C-39.08158152 53.25050131 -39.09839323 49.78041968 -39.11157227 46.30981445 C-39.12705612 45.24586456 -39.14253998 44.18191467 -39.15849304 43.08572388 C-39.16113398 31.19412403 -35.85198319 20.89251812 -27.81469727 11.9465332 C-20.0772033 4.56892268 -10.75316166 0.13039997 0 0 Z M-16.90063477 24.80981445 C-22.84329978 32.14434602 -22.81860352 38.83740529 -22.81860352 48.17700195 C-5.32860352 48.17700195 12.16139648 48.17700195 30.18139648 48.17700195 C30.18139648 37.61700195 30.18139648 27.05700195 30.18139648 16.17700195 C25.43764648 16.11512695 20.69389648 16.05325195 15.80639648 15.98950195 C14.33122559 15.96218994 12.85605469 15.93487793 11.33618164 15.90673828 C0.11674835 15.83628539 -8.61433818 16.80217209 -16.90063477 24.80981445 Z " fill="#BC483F" transform="translate(2083.818603515625,585.822998046875)"/>
<path d="M0 0 C0.92768692 -0.01283524 1.85537384 -0.02567047 2.81117249 -0.03889465 C3.80088547 -0.04628159 4.79059845 -0.05366852 5.81030273 -0.0612793 C6.83695541 -0.06935104 7.86360809 -0.07742279 8.92137146 -0.08573914 C11.08737516 -0.09954111 13.25340026 -0.11028056 15.41943359 -0.11816406 C17.6375972 -0.12972972 19.85573201 -0.15025296 22.07373047 -0.1796875 C25.27778036 -0.22220547 28.48100639 -0.23850715 31.68530273 -0.2487793 C32.67703995 -0.26628738 33.66877716 -0.28379547 34.69056702 -0.30183411 C41.53669419 -0.28017044 41.53669419 -0.28017044 44.77490234 2.01611328 C47.45492072 6.13360029 47.31860502 9.94429004 47.29492188 14.67773438 C47.2950679 15.43895096 47.29521393 16.20016754 47.29536438 16.98445129 C47.29466772 19.50048675 47.28688687 22.01644818 47.27905273 24.5324707 C47.27718768 26.27696187 47.27576419 28.02145356 47.27476501 29.76594543 C47.27094674 34.35758917 47.26112233 38.94920128 47.25006104 43.54083252 C47.2398321 48.22619194 47.23526421 52.91155646 47.23022461 57.59692383 C47.21949946 66.79029933 47.20190822 75.98364307 47.18139648 85.17700195 C41.57139648 85.17700195 35.96139648 85.17700195 30.18139648 85.17700195 C30.18139648 78.57700195 30.18139648 71.97700195 30.18139648 65.17700195 C12.69139648 65.17700195 -4.79860352 65.17700195 -22.81860352 65.17700195 C-22.81860352 71.77700195 -22.81860352 78.37700195 -22.81860352 85.17700195 C-28.09860352 85.17700195 -33.37860352 85.17700195 -38.81860352 85.17700195 C-38.89312639 78.09694686 -38.94738198 71.01712347 -38.98339844 63.93676758 C-38.99842357 61.53145364 -39.01884948 59.12616682 -39.04492188 56.72094727 C-39.08158152 53.25050131 -39.09839323 49.78041968 -39.11157227 46.30981445 C-39.12705612 45.24586456 -39.14253998 44.18191467 -39.15849304 43.08572388 C-39.16113398 31.19412403 -35.85198319 20.89251812 -27.81469727 11.9465332 C-20.0772033 4.56892268 -10.75316166 0.13039997 0 0 Z M-16.90063477 24.80981445 C-22.84329978 32.14434602 -22.81860352 38.83740529 -22.81860352 48.17700195 C-5.32860352 48.17700195 12.16139648 48.17700195 30.18139648 48.17700195 C30.18139648 37.61700195 30.18139648 27.05700195 30.18139648 16.17700195 C25.43764648 16.11512695 20.69389648 16.05325195 15.80639648 15.98950195 C14.33122559 15.96218994 12.85605469 15.93487793 11.33618164 15.90673828 C0.11674835 15.83628539 -8.61433818 16.80217209 -16.90063477 24.80981445 Z " fill="#BC483F" transform="translate(1578.818603515625,585.822998046875)"/>
<path d="M0 0 C5.28 0 10.56 0 16 0 C16 11.22 16 22.44 16 34 C33.49 34 50.98 34 69 34 C69 22.78 69 11.56 69 0 C74.28 0 79.56 0 85 0 C85 28.05 85 56.1 85 85 C79.72 85 74.44 85 69 85 C69 73.78 69 62.56 69 51 C51.51 51 34.02 51 16 51 C16 62.22 16 73.44 16 85 C10.72 85 5.44 85 0 85 C0 56.95 0 28.9 0 0 Z " fill="#BC483F" transform="translate(2273,586)"/>
<path d="M0 0 C5.61 0 11.22 0 17 0 C17.03738281 2.32417969 17.07476563 4.64835938 17.11328125 7.04296875 C17.1595442 9.30356041 17.21076028 11.5639896 17.26245117 13.82446289 C17.29562532 15.39076801 17.32368058 16.95719051 17.34643555 18.52368164 C17.38012116 20.78061763 17.43244049 23.03648526 17.48828125 25.29296875 C17.49467117 25.98899704 17.5010611 26.68502533 17.50764465 27.40214539 C17.6377241 31.74142504 18.26698012 34.59042468 21 38 C24.50911983 40.67397555 28.60411103 40.30609297 32.8359375 40.30078125 C33.97139511 40.30720894 33.97139511 40.30720894 35.12979126 40.31376648 C36.72844444 40.31949896 38.3271237 40.32001801 39.92578125 40.31567383 C42.35983291 40.31251965 44.79266149 40.33596473 47.2265625 40.36132812 C48.78385264 40.36360197 50.34114603 40.36430422 51.8984375 40.36328125 C52.62050385 40.372491 53.34257019 40.38170074 54.08651733 40.39118958 C58.79848825 40.34849029 62.06850025 39.62446045 66 37 C69.2915236 33.0361318 69.41111262 29.56214642 69.51171875 24.51171875 C69.53864555 23.4569207 69.53864555 23.4569207 69.56611633 22.3808136 C69.6200048 20.14976883 69.65404412 17.9189353 69.6875 15.6875 C69.72069224 14.16859053 69.75518367 12.64970886 69.79101562 11.13085938 C69.87815023 7.4205462 69.93839492 3.71117502 70 0 C75.28 0 80.56 0 86 0 C86.09242632 4.94480834 86.17187493 9.88655521 86.21972656 14.83154297 C86.23969699 16.50938131 86.26688332 18.18715136 86.30175781 19.86474609 C86.71263718 40.15493614 86.71263718 40.15493614 79.88671875 48.62109375 C70.25346422 56.57751179 63.70746505 58 51 58 C51 66.91 51 75.82 51 85 C45.72 85 40.44 85 35 85 C35 76.09 35 67.18 35 58 C32.03 58 29.06 58 26 58 C18.16027905 56.73049973 10.64517783 53.2141812 5.3984375 47.1484375 C-1.09688518 37.61436736 -0.2540638 26.46758497 -0.125 15.4375 C-0.11494923 13.93685494 -0.10582709 12.43620335 -0.09765625 10.93554688 C-0.07752661 7.29006879 -0.03835138 3.64551196 0 0 Z " fill="#BC483F" transform="translate(2472,586)"/>
<path d="M0 0 C27.72 0 55.44 0 84 0 C84 5.28 84 10.56 84 16 C72.78 16 61.56 16 50 16 C50 38.77 50 61.54 50 85 C44.72 85 39.44 85 34 85 C34 62.23 34 39.46 34 16 C22.78 16 11.56 16 0 16 C0 10.72 0 5.44 0 0 Z " fill="#BC483F" transform="translate(2179,586)"/>
<path d="M0 0 C27.72 0 55.44 0 84 0 C84 5.28 84 10.56 84 16 C72.78 16 61.56 16 50 16 C50 38.77 50 61.54 50 85 C44.72 85 39.44 85 34 85 C34 62.23 34 39.46 34 16 C22.78 16 11.56 16 0 16 C0 10.72 0 5.44 0 0 Z " fill="#BC483F" transform="translate(1674,586)"/>
<path d="M0 0 C5.61 0 11.22 0 17 0 C17 22.77 17 45.54 17 69 C37.46 69 57.92 69 79 69 C79 74.28 79 79.56 79 85 C69.27303517 85.06772927 59.5462265 85.1227891 49.8190794 85.15543652 C45.30255574 85.17110424 40.78620152 85.19236257 36.26977539 85.22631836 C31.91259403 85.25887255 27.55557582 85.27684468 23.19828224 85.28463173 C21.53445682 85.29018235 19.8706405 85.30102118 18.20688438 85.31719017 C15.87950596 85.33891251 13.55280499 85.34196917 11.2253418 85.34057617 C10.53482224 85.351362 9.84430267 85.36214783 9.13285828 85.3732605 C6.3187405 85.35498961 4.44803247 85.31633294 2.11091614 83.66621399 C-0.45865676 79.81222523 -0.13543654 75.84374247 -0.11352539 71.4074707 C-0.11367142 70.63650055 -0.11381744 69.8655304 -0.1139679 69.07119751 C-0.11327119 66.52269681 -0.1054901 63.97426918 -0.09765625 61.42578125 C-0.09579121 59.65886983 -0.09436771 57.8919579 -0.09336853 56.12504578 C-0.08955012 51.47421847 -0.07972558 46.82342239 -0.06866455 42.17260742 C-0.05843591 37.42692487 -0.05386779 32.68123727 -0.04882812 27.93554688 C-0.03810273 18.62368199 -0.02051137 9.31184848 0 0 Z " fill="#BC483F" transform="translate(1957,586)"/>
<path d="M0 0 C5.28 0 10.56 0 16 0 C16 28.05 16 56.1 16 85 C10.72 85 5.44 85 0 85 C0 56.95 0 28.9 0 0 Z " fill="#BC483F" transform="translate(1769,586)"/>
<path d="M0 0 C2.61241525 1.54775525 5.02866323 3.22875101 7.39697266 5.12890625 C9.77104246 6.97901651 12.30515588 8.45647776 14.89990234 9.97314453 C17.36867484 11.42285432 19.77328913 12.96891534 22.18017578 14.51855469 C20.50621273 19.11021969 18.38634552 21.89052051 15.18017578 25.51855469 C9.85560965 23.91712029 5.13678245 21.51122492 0.30322266 18.82128906 C-2.29499745 17.45245678 -4.31138519 16.5104714 -7.27685547 16.55761719 C-10.85721331 17.91056347 -14.11749042 19.69968138 -17.44482422 21.58105469 C-24.41790114 25.51855469 -24.41790114 25.51855469 -27.81982422 25.51855469 C-29.42529297 23.54980469 -29.42529297 23.54980469 -31.00732422 21.01855469 C-31.53712891 20.18324219 -32.06693359 19.34792969 -32.61279297 18.48730469 C-33.01111328 17.83761719 -33.40943359 17.18792969 -33.81982422 16.51855469 C-30.53426633 7.99730133 -17.77358363 2.97893024 -9.94189453 -0.515625 C-6.00599979 -1.73320395 -3.74375109 -1.62586775 0 0 Z " fill="#BC483F" transform="translate(2422.81982421875,553.4814453125)"/>
<path d="M0 0 C1.95592431 1.17588307 3.65542378 2.48578083 5.42578125 3.921875 C7.63375333 5.43403454 9.40523881 5.39314564 12 5 C12.99 3.02 13.98 1.04 15 -1 C18.63 -1 22.26 -1 26 -1 C26.38973528 6.01523502 26.25002014 11.20325122 22 17 C18.26292466 20.2180371 13.88113668 21.15866027 9 21 C3.97253087 19.32417696 -0.45558263 16.68955314 -5 14 C-8.52360997 15.93991361 -8.52360997 15.93991361 -10 21 C-13.63 21 -17.26 21 -21 21 C-21.47696176 14.44177574 -20.45214602 9.65706509 -17 4 C-11.71642587 -1.15470647 -6.96178387 -1.75204894 0 0 Z " fill="#BC483F" transform="translate(1580,558)"/>
<path d="M0 0 C0 0.99 0 1.98 0 3 C-0.66717041 3.03963867 -1.33434082 3.07927734 -2.02172852 3.12011719 C-78.17966134 7.83158804 -150.68427883 40.27293205 -202.625 96.875 C-204.09763903 98.57101686 -205.5545495 100.28075256 -207 102 C-207.47083008 102.55316895 -207.94166016 103.10633789 -208.42675781 103.67626953 C-219.70679507 116.97846847 -229.66209298 131.1266318 -238.5625 146.125 C-238.95590576 146.78685303 -239.34931152 147.44870605 -239.75463867 148.13061523 C-242.53918717 152.93479283 -244.82917273 157.89173752 -247 163 C-247.66 163 -248.32 163 -249 163 C-247.41029723 157.44951238 -244.8413616 152.64869682 -242.0625 147.625 C-241.57523438 146.74376465 -241.08796875 145.8625293 -240.5859375 144.95458984 C-232.96987043 131.3988715 -223.83130385 119.01834505 -214 107 C-213.55640137 106.4519873 -213.11280273 105.90397461 -212.65576172 105.33935547 C-200.65585815 90.59065196 -187.16882551 76.50163693 -172 65 C-170.71760508 63.99103683 -169.43645769 62.98048695 -168.15625 61.96875 C-121.17919161 25.09909166 -60.35591511 0 0 0 Z " fill="#E4ACAB" transform="translate(379,78)"/>
<path d="M0 0 C3.63261228 3.54114363 6.99452773 7.23248568 10.25 11.125 C10.72888672 11.69412109 11.20777344 12.26324219 11.70117188 12.84960938 C15.40850885 17.26591916 19.05708994 21.72903935 22.69921875 26.19921875 C26.59486764 30.94146027 30.56634919 35.61870537 34.54541016 40.29101562 C35.52539302 41.44238858 36.50421145 42.59475354 37.48193359 43.74804688 C43.69923643 51.08158753 50.02624786 58.28187907 56.5546875 65.33984375 C58.55160793 67.51221246 60.50828734 69.70539163 62.4375 71.9375 C66.98123293 77.17361128 71.72337974 82.22947427 76.43701172 87.31201172 C77.92095404 88.91463234 79.40084559 90.52086155 80.87890625 92.12890625 C94.36091525 106.79478142 108.0577667 121.21378706 122.15625 135.2890625 C123.6389389 136.77242796 125.12147959 138.25594158 126.60388184 139.73959351 C129.6744099 142.81157786 132.74669316 145.88179226 135.8203125 148.95068359 C139.74156269 152.86619197 143.6582427 156.78623658 147.57364655 160.7075901 C150.61914 163.7567069 153.66702298 166.80342619 156.71562195 169.84943771 C158.16111924 171.294273 159.60588818 172.7398374 161.04988098 174.1861763 C170.53103659 183.75416634 170.53103659 183.75416634 180.53955078 192.75973511 C182.6511777 194.55300303 184.57214745 196.51282891 186.5 198.5 C193.97660685 206.28453621 193.97660685 206.28453621 203 212 C201.02 212.99 201.02 212.99 199 214 C198.38125 213.36384766 198.38125 213.36384766 197.75 212.71484375 C194.68070333 209.59758932 191.57852532 206.59024991 188.25 203.75 C183.90169752 200.0084374 179.91053339 195.94452214 175.90625 191.84375 C173.90355428 189.83588289 171.82377399 187.98439066 169.65844727 186.15405273 C163.33365293 180.63858929 157.48395383 174.62772616 151.55859375 168.69140625 C150.2641481 167.39763566 148.96955416 166.10401343 147.67481995 164.81053162 C144.97274849 162.10992761 142.27247619 159.40754107 139.57348633 156.70385742 C136.1318801 153.25655451 132.68580295 149.8137615 129.23835659 146.37230015 C126.56752289 143.70509788 123.89909756 141.03549632 121.23137093 138.36518669 C119.96237417 137.0955278 118.6926479 135.82659757 117.42214775 134.55844307 C105.44098568 122.59455575 105.44098568 122.59455575 100.34107971 116.56126404 C98.19525171 114.06312462 95.85609746 111.80065987 93.5 109.5 C89.75916767 105.84718725 86.28744708 102.07129248 82.86523438 98.11914062 C79.6715467 94.49071013 76.33034717 91.00260651 73 87.5 C68.41414774 82.67694848 63.91009541 77.81027752 59.54980469 72.78173828 C57.60975159 70.55134958 55.61949697 68.36921987 53.625 66.1875 C50.49577173 62.72469918 47.49499651 59.19320997 44.5625 55.5625 C41.48663412 51.75912497 38.31246834 48.09917348 35 44.5 C30.59127687 39.69908984 26.44513166 34.74049483 22.35449219 29.66796875 C20.16523293 26.97203883 17.94750204 24.29971709 15.73388672 21.6237793 C0 2.58978526 0 2.58978526 0 0 Z " fill="#E3A9A8" transform="translate(194,595)"/>
<path d="M0 0 C4.30542772 0.58443155 7.26463999 2.12560082 10.95703125 4.37890625 C12.06884766 5.05244141 13.18066406 5.72597656 14.32617188 6.41992188 C15.48837949 7.13395471 16.65048764 7.84814946 17.8125 8.5625 C18.99372866 9.28127642 20.17536539 9.99938266 21.35742188 10.71679688 C24.2423642 12.47131282 27.12296183 14.23256333 30 16 C29.60404157 17.48484412 29.18249294 18.9628831 28.75 20.4375 C28.51796875 21.26121094 28.2859375 22.08492187 28.046875 22.93359375 C27 25 27 25 25.27978516 25.91357422 C22.07875539 26.03492403 19.76332008 25.08358376 16.7734375 23.9453125 C15.5771875 23.49542969 14.3809375 23.04554688 13.1484375 22.58203125 C11.89056943 22.0964981 10.63275755 21.61081937 9.375 21.125 C8.10974434 20.64615836 6.84412261 20.16828281 5.578125 19.69140625 C-3.49714007 16.25142997 -3.49714007 16.25142997 -6 15 C-4.36041242 9.76727367 -2.61047965 4.84803364 0 0 Z " fill="#BC483F" transform="translate(2065,553)"/>
<path d="M0 0 C4.30542772 0.58443155 7.26463999 2.12560082 10.95703125 4.37890625 C12.06884766 5.05244141 13.18066406 5.72597656 14.32617188 6.41992188 C15.48837949 7.13395471 16.65048764 7.84814946 17.8125 8.5625 C18.99372866 9.28127642 20.17536539 9.99938266 21.35742188 10.71679688 C24.2423642 12.47131282 27.12296183 14.23256333 30 16 C29.60404157 17.48484412 29.18249294 18.9628831 28.75 20.4375 C28.51796875 21.26121094 28.2859375 22.08492187 28.046875 22.93359375 C27 25 27 25 25.27978516 25.91357422 C22.07875539 26.03492403 19.76332008 25.08358376 16.7734375 23.9453125 C15.5771875 23.49542969 14.3809375 23.04554688 13.1484375 22.58203125 C11.89056943 22.0964981 10.63275755 21.61081937 9.375 21.125 C8.10974434 20.64615836 6.84412261 20.16828281 5.578125 19.69140625 C-3.49714007 16.25142997 -3.49714007 16.25142997 -6 15 C-4.36041242 9.76727367 -2.61047965 4.84803364 0 0 Z " fill="#BC483F" transform="translate(1751,553)"/>
<path d="M0 0 C2.7548138 1.92461672 5.22983833 4.04212467 7.77416992 6.23950195 C3.77441606 10.46580437 -0.56738437 13.95035751 -5.22583008 17.42700195 C-5.92450195 17.9600293 -6.62317383 18.49305664 -7.34301758 19.04223633 C-8.0262207 19.55463867 -8.70942383 20.06704102 -9.41333008 20.5949707 C-10.33178711 21.28562622 -10.33178711 21.28562622 -11.26879883 21.99023438 C-13.22583008 23.23950195 -13.22583008 23.23950195 -18.22583008 25.23950195 C-21.52583008 21.93950195 -24.82583008 18.63950195 -28.22583008 15.23950195 C-23.9733103 10.98698218 -18.98323241 8.4041417 -13.78833008 5.42700195 C-12.73838867 4.80374023 -11.68844727 4.18047852 -10.60668945 3.53833008 C-9.59541992 2.95889648 -8.58415039 2.37946289 -7.54223633 1.7824707 C-6.61870361 1.2464624 -5.6951709 0.7104541 -4.74365234 0.15820312 C-2.22583008 -0.76049805 -2.22583008 -0.76049805 0 0 Z " fill="#BC483F" transform="translate(2482.225830078125,547.760498046875)"/>
<path d="M0 0 C0 0.99 0 1.98 0 3 C-5.94 3 -11.88 3 -18 3 C-17.67 2.34 -17.34 1.68 -17 1 C-14.19921875 0.5859375 -14.19921875 0.5859375 -10.6875 0.375 C-9.53636719 0.30023438 -8.38523437 0.22546875 -7.19921875 0.1484375 C-4.80154857 0.03719029 -2.40024962 0 0 0 Z " fill="#E3A9A8" transform="translate(379,78)"/>
</svg>
